<?xml version="1.0" encoding="utf-8"?>
<!-- Generator: Adobe Illustrator 17.0.0, SVG Export Plug-In . SVG Version: 6.00 Build 0)  -->
<!DOCTYPE svg PUBLIC "-//W3C//DTD SVG 1.1//EN" "http://www.w3.org/Graphics/SVG/1.1/DTD/svg11.dtd">
<svg version="1.1" id="Layer_1" xmlns="http://www.w3.org/2000/svg" xmlns:xlink="http://www.w3.org/1999/xlink" x="0px" y="0px"
	 width="320px" height="134px" viewBox="0 0 320 134" enable-background="new 0 0 320 134" xml:space="preserve">
<text transform="matrix(1 0 0 1 24.5567 122.6178)" fill="#FFFFFF" font-family="'Avenir-Light'" font-size="28">Let&apos;s deliver together!</text>
<text transform="matrix(1 0 0 1 104.1032 66.5179)" fill="#FFFFFF" font-family="'Avenir-Light'" font-size="64" letter-spacing="-3">briiing.it</text>
<g id="svgg">
	<path id="path0" fill="#FFFFFF" d="M21.848,1.449C15.415,1.818,11.296,3.431,7.75,6.972c-3.619,3.614-5.272,7.753-5.624,14.082
		C1.959,24.066,2.064,68.229,2.243,69.84c0.752,6.788,3.325,11.365,8.205,14.596c2.85,1.887,5.119,2.663,9.331,3.194
		c1.869,0.235,48.649,0.239,50.833,0.004c5.525-0.594,9.189-2.265,12.556-5.727c3.004-3.088,4.587-6.767,5.192-12.066
		c0.163-1.421,0.163-48.684,0.001-50.241c-0.565-5.421-2.073-9.024-5.114-12.217c-3.276-3.441-7.034-5.164-12.72-5.831
		C69.261,1.401,24.307,1.308,21.848,1.449 M29.067,18.215c4.56,1.013,7.008,6.157,4.985,10.475c-0.191,0.409-0.85,1.437-1.546,2.417
		c-5.085,7.154-4.975,7.004-5.085,6.886c-0.131-0.14-5.397-7.545-6.004-8.443C17.756,24.135,22.705,16.802,29.067,18.215
		 M48.381,18.246c4.485,1.075,6.862,6.104,4.925,10.42c-0.144,0.32-0.614,1.08-1.046,1.689c-3.393,4.787-5.408,7.62-5.46,7.678
		c-0.034,0.038-0.472-0.513-0.974-1.224c-0.502-0.711-1.037-1.464-1.19-1.673c-3.609-4.94-4.617-6.519-4.938-7.737
		C38.285,22.034,43.083,16.976,48.381,18.246 M67.641,18.248c5.192,1.245,7.272,7.349,4.045,11.872
		c-0.295,0.413-1.48,2.081-2.633,3.707c-2.18,3.072-2.908,4.092-3,4.203c-0.03,0.036-0.507-0.572-1.06-1.351
		c-0.553-0.779-1.953-2.746-3.111-4.372c-2.559-3.592-2.754-3.949-3.051-5.573C57.889,21.589,62.61,17.042,67.641,18.248
		 M28.6,40.922c1.498,0.39,2.758,1.706,3.126,3.263c0.109,0.461,0.126,2.333,0.127,13.728l0.001,13.194h-4.391h-4.391l0.001-13.151
		c0.001-10.963,0.021-13.244,0.12-13.71C23.707,41.822,26.192,40.295,28.6,40.922 M47.774,40.923
		c1.581,0.411,2.831,1.682,3.202,3.254c0.111,0.47,0.128,2.265,0.129,13.735l0.001,13.194h-4.393h-4.392l0.023-13.362
		c0.02-11.946,0.037-13.403,0.157-13.742C43.342,41.614,45.528,40.339,47.774,40.923 M67.006,40.918
		c1.645,0.428,2.874,1.717,3.225,3.378c0.107,0.506,0.125,2.469,0.126,13.7l0.002,13.109h-4.393h-4.393l0.023-13.405l0.023-13.405
		l0.226-0.581C62.682,41.56,64.886,40.366,67.006,40.918"/>
	<path id="path1" fill="#4FA6DC" d="M64.482,18.204c-4.637,1.009-7.147,6.344-4.986,10.597c0.154,0.302,1.227,1.88,2.385,3.505
		c1.158,1.626,2.558,3.593,3.111,4.372c0.553,0.779,1.03,1.387,1.06,1.351c0.092-0.11,0.82-1.131,3-4.203
		c1.153-1.625,2.338-3.293,2.633-3.707C75.743,24.434,71.105,16.762,64.482,18.204 M64.879,40.926
		c-1.392,0.374-2.487,1.381-3.035,2.79l-0.226,0.581l-0.023,13.405l-0.023,13.405h4.393h4.393l-0.002-13.109
		c-0.001-11.231-0.019-13.194-0.126-13.7C69.715,41.85,67.239,40.291,64.879,40.926"/>
	<path id="path2" fill="#F15A5B" d="M26.295,18.167c-4.53,0.813-7.196,5.622-5.546,10.005c0.299,0.793,0.378,0.914,3.44,5.216
		c3.365,4.729,3.285,4.618,3.321,4.618c0.03,0,0.822-1.102,4.182-5.826c2.705-3.803,2.987-4.437,2.988-6.713
		C34.681,20.879,30.664,17.383,26.295,18.167 M26.782,40.879c-1.672,0.256-3.153,1.636-3.535,3.293
		c-0.058,0.25-0.088,4.85-0.089,13.656l-0.002,13.279l4.328-0.022l4.327-0.022V57.849c0-12.367-0.01-13.249-0.149-13.754
		C31.056,41.897,28.996,40.54,26.782,40.879"/>
	<path id="path3" fill="#F59495" d="M22.351,20.21l-0.334,0.359l0.359-0.334c0.197-0.184,0.359-0.345,0.359-0.359
		C22.734,19.813,22.661,19.877,22.351,20.21 M24.377,42.08l-0.334,0.359l0.359-0.334c0.334-0.31,0.398-0.384,0.334-0.384
		C24.722,41.721,24.561,41.883,24.377,42.08 M31.789,44.93c0,0.162,0.017,0.229,0.038,0.148c0.021-0.081,0.021-0.214,0-0.295
		C31.806,44.701,31.789,44.768,31.789,44.93 M23.113,57.976c0,7.245,0.01,10.196,0.022,6.558c0.012-3.638,0.012-9.565,0-13.172
		C23.123,47.755,23.113,50.731,23.113,57.976"/>
	<path id="path4" fill="#F7B22D" d="M27.358,18.053c0.105,0.02,0.257,0.019,0.338-0.002c0.081-0.021-0.005-0.038-0.191-0.037
		C27.32,18.016,27.253,18.033,27.358,18.053 M45.195,18.211c-4.534,0.982-7.062,6.235-5.031,10.455
		c0.229,0.475,2.615,3.926,4.473,6.47c0.153,0.209,0.688,0.962,1.19,1.673c0.502,0.711,0.94,1.262,0.974,1.224
		c0.052-0.058,2.067-2.891,5.46-7.678c1.354-1.909,1.676-2.851,1.673-4.888C53.925,20.682,49.759,17.222,45.195,18.211
		 M34.751,25.467c0,0.279,0.016,0.383,0.035,0.231c0.019-0.152,0.018-0.38-0.001-0.507S34.751,25.188,34.751,25.467 M45.627,40.926
		c-1.123,0.302-2.276,1.221-2.746,2.189c-0.556,1.144-0.512-0.066-0.537,14.629l-0.023,13.362h4.392h4.393l-0.001-13.194
		c-0.001-11.469-0.018-13.264-0.129-13.735C50.419,41.816,47.934,40.305,45.627,40.926"/>
</g>
</svg>
