<?xml version="1.0" encoding="UTF-8" standalone="no"?>
<svg width="157px" height="42px" viewBox="0 0 157 42" version="1.1" xmlns="http://www.w3.org/2000/svg" xmlns:xlink="http://www.w3.org/1999/xlink" xmlns:sketch="http://www.bohemiancoding.com/sketch/ns">
    <!-- Generator: Sketch 3.4.4 (17249) - http://www.bohemiancoding.com/sketch -->
    <title>smart-city-logo</title>
    <desc>Created with Sketch.</desc>
    <defs>
        <path id="path-1" d="M0,0.626557377 L156.349965,0.626557377 L156.349965,41.9586885 L0,41.9586885"></path>
    </defs>
    <g id="Page-1" stroke="none" stroke-width="1" fill="none" fill-rule="evenodd" sketch:type="MSPage">
        <g id="Desktop-Smart-City" sketch:type="MSArtboardGroup" transform="translate(-344.000000, -10.000000)">
            <g id="smart-city-logo" sketch:type="MSLayerGroup" transform="translate(344.000000, 10.000000)">
                <path d="M76.4617544,32.13 C76.4183728,32.5231475 76.3846316,32.8336721 76.3749912,32.9438361 C76.3949605,32.7923607 76.5416316,31.8366885 76.6580044,31.065541 C76.651807,31.093082 76.6462982,31.1199344 76.6401009,31.1474754 C76.5808816,31.4924262 76.5209737,31.8125902 76.4617544,32.13" id="Fill-1" fill="#FFFFFF" sketch:type="MSShapeGroup"></path>
                <path d="M76.9961053,29.8537377 C76.9492807,30.2668525 76.8239561,31.1385246 76.805364,31.3560984 C76.844614,31.262459 76.9988596,31.527541 77.0140088,31.4882951 C76.9940395,31.0125246 76.9912851,30.238623 76.9961053,29.8537377" id="Fill-2" fill="#FFFFFF" sketch:type="MSShapeGroup"></path>
                <path d="M76.81225,30.6510492 C76.7771316,30.9230164 76.7316842,31.2872459 76.7316842,31.2872459 C76.7316842,31.2872459 76.7206667,31.4297705 76.7048289,31.6170492 C76.7110263,31.5998361 76.7206667,31.5819344 76.7247982,31.5654098 C76.7557851,31.2583279 76.7895263,30.9498689 76.81225,30.6510492" id="Fill-3" fill="#FFFFFF" sketch:type="MSShapeGroup"></path>
                <path d="M74.0206798,40.9004262 C74.0888509,40.4081311 74.1659737,39.8456066 74.2479167,39.2638033 C74.2196842,39.0689508 74.1962719,38.9236721 74.1962719,38.9236721 C74.2100439,38.7350164 74.3257281,38.2544262 74.4696447,37.7077377 C74.6479912,36.4800984 74.8132544,35.3908525 74.8945088,34.9777377 C74.9805833,33.8816066 75.156864,31.6700656 75.1575526,31.669377 L75.117614,31.5537049 C74.6700263,32.899082 74.6700263,32.899082 74.4627588,34.7388197 L74.0805877,39.466918 L73.953886,40.9148852 L73.9800526,40.9148852 C73.9952018,40.9148852 74.0062193,40.9031803 74.0206798,40.9004262" id="Fill-4" fill="#FFFFFF" sketch:type="MSShapeGroup"></path>
                <path d="M74.3766842,34.7546557 C74.5846404,32.913541 74.5846404,32.913541 75.0342939,31.5674754 L75.395807,30.2296721 C75.36,29.5425246 76.4142412,25.0285574 76.8184474,23.5303279 L65.044136,23.4222295 C33.2943289,23.4222295 30.6032939,23.3478689 30.4311447,23.518623 C30.3781228,23.5709508 30.347136,23.6453115 30.347136,23.7189836 L30.347136,40.6360328 C30.347136,40.7895738 30.4717719,40.9148852 30.6267061,40.9148852 L73.8691886,40.9148852 L73.9945132,39.4841311 L74.3766842,34.7546557" id="Fill-5" fill="#FFFFFF" sketch:type="MSShapeGroup"></path>
                <path d="M77.4664167,27.2166885 C77.5821009,26.5928852 77.67575,26.0248525 77.7404781,25.5353115 L77.5091096,26.6892787 C77.4946491,26.8627869 77.4808772,27.0390492 77.4664167,27.2166885" id="Fill-6" fill="#FFFFFF" sketch:type="MSShapeGroup"></path>
                <path d="M76.7647368,29.3607541 C76.7447675,29.6127541 76.5712412,31.1399016 76.4617544,32.13 C76.5209737,31.8125902 76.5808816,31.4924262 76.6401009,31.1474754 C76.6462982,31.1199344 76.651807,31.093082 76.6580044,31.065541 C76.7261754,30.6173115 76.7840175,30.2310492 76.7998553,30.1036721 C76.7895263,30.0664918 76.7757544,29.398623 76.7647368,29.3607541" id="Fill-7" fill="#FFFFFF" sketch:type="MSShapeGroup"></path>
                <path d="M76.9988596,29.2230492 C76.9988596,29.2230492 76.9947281,29.2437049 76.9940395,29.2560984 L77.5091096,26.6892787 C77.6082675,25.4643934 77.6957193,24.3951148 77.6957193,24.3951148 C77.6922763,24.3902951 77.8967895,24.2174754 77.9739123,24.1451803 L78.0654956,23.6666557 C78.0710044,23.6336066 78.0641184,23.6019344 78.0413947,23.5743934 C78.0200482,23.548918 77.9890614,23.534459 77.9553202,23.534459 L77.4808772,23.5372131 C77.5449167,25.2213443 77.2577719,27.3392459 76.9988596,29.2230492" id="Fill-8" fill="#FFFFFF" sketch:type="MSShapeGroup"></path>
                <path d="M75.7669605,29.7642295 C75.7669605,29.7642295 75.4013158,31.0882623 75.2828772,31.5137705 C75.2911404,31.6032787 75.2938947,31.6865902 75.2980263,31.7726557 C75.445386,30.8183607 75.7497456,30.1119344 76.0547939,29.4371803 C76.112636,29.3070492 76.1704781,29.1748525 76.226943,29.0440328 C76.4920526,27.8694098 76.7530307,26.7443607 76.81225,26.642459 C76.8150044,26.5770492 76.8253333,26.5199016 76.8280877,26.4517377 L76.8280877,26.4448525 L75.7669605,29.7642295" id="Fill-9" fill="#FFFFFF" sketch:type="MSShapeGroup"></path>
                <path d="M76.8280877,26.4393443 L76.8280877,26.4448525 L76.8294649,26.4414098 C76.8294649,26.4448525 76.8280877,26.4482951 76.8280877,26.4517377 C76.8335965,26.5391803 76.8335965,26.6218033 76.8335965,26.7058033 C76.9410175,25.5552787 77.1069693,24.4515738 77.3968684,23.5358361 L76.8969474,23.5310164 C76.5932763,25.1098033 75.4956535,29.6637049 75.4956535,30.128459 C75.598943,29.6079344 76.1897588,28.4918361 76.8280877,26.4393443" id="Fill-10" fill="#FFFFFF" sketch:type="MSShapeGroup"></path>
                <path d="M77.4512675,23.5365246 L77.4430044,23.5365246 C77.3693246,24.1782295 77.1710088,25.9229508 77.04775,27.019082 C77.1510395,26.7367869 77.2357368,26.5054426 77.2357368,26.5054426 C77.2384912,26.4999344 77.2529518,26.4964918 77.2653465,26.4923607 C77.3837851,25.4513115 77.4650395,24.4364262 77.4684825,23.5372131 L77.4547105,23.5372131 C77.4533333,23.5372131 77.4526447,23.5365246 77.4512675,23.5365246" id="Fill-11" fill="#FFFFFF" sketch:type="MSShapeGroup"></path>
                <path d="M76.9086535,26.7560656 C77.0243377,25.9890492 77.1537939,25.2192787 77.2839386,24.4446885 C77.3328289,24.0687541 77.3789649,23.7389508 77.4140833,23.5365246 L77.4133947,23.5365246 C77.1593026,24.4598361 77.0098772,25.5821311 76.9086535,26.7560656" id="Fill-12" fill="#FFFFFF" sketch:type="MSShapeGroup"></path>
                <path d="M76.9423947,27.9375738 C76.9520351,28.224 76.976136,28.490459 76.9733816,28.7913443 C77.0663421,28.1097049 77.1593026,27.4067213 77.2398684,26.710623 C77.1806491,26.8724262 77.0987061,27.1010164 77.0112544,27.3351148 C76.9747588,27.649082 76.9506579,27.873541 76.9423947,27.9375738" id="Fill-13" fill="#FFFFFF" sketch:type="MSShapeGroup"></path>
                <path d="M76.9079649,27.0170164 C76.8955702,27.1161639 76.8769781,27.217377 76.8618289,27.3165246 C76.8563202,27.3998361 76.8535658,27.4803934 76.8459912,27.5643934 C76.8687149,27.5065574 76.8900614,27.4500984 76.9127851,27.3888197 C76.9114079,27.2641967 76.9155395,27.1347541 76.9079649,27.0170164" id="Fill-14" fill="#FFFFFF" sketch:type="MSShapeGroup"></path>
                <path d="M76.6118684,27.9637377 C76.6201316,27.928623 76.6290833,27.8983279 76.6387237,27.8652787 C76.7247982,27.5196393 76.7840175,27.1457705 76.805364,26.7237049 C76.7702456,27.133377 76.6814167,27.5485574 76.6118684,27.9637377" id="Fill-15" fill="#FFFFFF" sketch:type="MSShapeGroup"></path>
                <path d="M76.8590746,29.1535082 C76.8769781,29.1838033 76.8817982,29.2202951 76.8900614,29.2547213 C76.9052105,28.8808525 76.9155395,28.5124918 76.9196711,28.1558361 C76.8783553,28.4863279 76.8349737,28.8299016 76.7929693,29.1707213 L76.8590746,29.1535082" id="Fill-16" fill="#FFFFFF" sketch:type="MSShapeGroup"></path>
                <path d="M76.9293114,27.3440656 C77.0002368,26.7257705 77.1055921,25.8437705 77.2019956,25.0540328 C77.1055921,25.7046885 77.001614,26.3574098 76.9114079,27.0032459 C76.9196711,27.1147869 76.9169167,27.2414754 76.9224254,27.3578361 C76.9251798,27.3537049 76.926557,27.3495738 76.9293114,27.3440656" id="Fill-17" fill="#FFFFFF" sketch:type="MSShapeGroup"></path>
                <path d="M75.759386,31.0200984 C75.759386,31.0200984 75.6795088,31.5068852 75.6691798,31.5688525 C75.6863947,31.486918 75.7821096,31.0476393 75.9150088,30.4417377 C75.8640526,30.6317705 75.7834868,30.8465902 75.759386,31.0200984" id="Fill-18" fill="#FFFFFF" sketch:type="MSShapeGroup"></path>
                <path d="M76.8900614,27.663541 C76.8700921,27.7220656 76.8501228,27.7771475 76.8294649,27.8294754 C76.8108728,28.0924918 76.7929693,28.3555082 76.7771316,28.6178361 C76.7943465,28.4794426 76.8487456,28.0291475 76.8900614,27.663541" id="Fill-19" fill="#FFFFFF" sketch:type="MSShapeGroup"></path>
                <path d="M75.4082018,32.661541 C75.4832588,32.1878361 75.6733114,31.0338689 75.6733114,31.0338689 C75.7428596,30.561541 75.9232719,30.0038361 76.1339825,29.4344262 C75.8020789,30.170459 75.4605351,30.9326557 75.3352105,32.031541 C75.3352105,32.031541 75.3221272,32.1781967 75.3193728,32.1885246 C75.3324561,32.4474098 75.3393421,32.7076721 75.3365877,32.9472787 C75.3593114,32.8522623 75.3841009,32.7558689 75.4082018,32.661541" id="Fill-20" fill="#FFFFFF" sketch:type="MSShapeGroup"></path>
                <path d="M75.6733114,32.3351803 C75.5355921,32.8639672 75.4405658,33.3583279 75.3111096,33.8747213 C75.2587763,34.6665246 75.1527325,35.4087541 75.0342939,36.2157049 C75.2195263,35.6022295 75.0776754,36.5682295 75.3000921,35.9540656 C75.3779035,35.5209836 75.784864,33.5063607 75.8695614,33.0705246 L75.9053684,32.7221311 C75.9941974,31.8511475 76.0967982,30.8920328 76.2296974,29.9680328 C76.0575482,30.7632787 75.8757588,31.555082 75.6733114,32.3351803" id="Fill-21" fill="#FFFFFF" sketch:type="MSShapeGroup"></path>
                <path d="M76.7392588,27.8549508 C76.7420132,27.7998689 76.7475219,27.7440984 76.7544079,27.6890164 C76.7289298,27.8129508 76.7006974,27.9334426 76.6683333,28.0498033 C76.6827939,28.0091803 76.7096491,27.9375738 76.7392588,27.8549508" id="Fill-22" fill="#FFFFFF" sketch:type="MSShapeGroup"></path>
                <path d="M75.2787456,31.8841967 C75.2759912,31.7754098 75.2759912,31.6700656 75.2711711,31.5571475 C75.2560219,31.6156721 75.2450044,31.6528525 75.2450044,31.6528525 C75.2450044,31.6528525 75.1417149,32.9328197 75.0515088,34.0743934 C75.1458465,33.1021967 75.2518904,32.0466885 75.2518904,32.0466885 C75.2560219,31.9881639 75.2711711,31.9406557 75.2787456,31.8841967" id="Fill-23" fill="#FFFFFF" sketch:type="MSShapeGroup"></path>
                <path d="M76.5078904,28.6777377 C76.3295439,29.6802295 76.1904474,30.8094098 76.0788947,31.8752459 L76.4892982,29.4117049 L76.5030702,29.4068852 C76.5092675,29.3848525 76.5271711,29.2395738 76.5271711,29.2395738 L76.5581579,29.2313115 C76.6022281,28.8836066 76.6504298,28.5352131 76.697943,28.1854426 C76.6951886,28.1957705 76.6924342,28.2019672 76.6924342,28.2019672 C76.6290833,28.3561967 76.569864,28.5186885 76.5078904,28.6777377" id="Fill-24" fill="#FFFFFF" sketch:type="MSShapeGroup"></path>
                <path d="M76.8280877,26.4448525 L76.8280877,26.4517377 C76.8280877,26.4482951 76.8294649,26.4448525 76.8294649,26.4414098 L76.8280877,26.4448525" id="Fill-25" fill="#FFFFFF" sketch:type="MSShapeGroup"></path>
                <path d="M74.5040746,39.7292459 C74.5047632,39.7388852 74.503386,39.7485246 74.5040746,39.7574754 C74.5054518,39.7636721 74.5040746,39.7712459 74.5040746,39.7767541 C74.5040746,39.7746885 74.5054518,39.7602295 74.5061404,39.7554098 C74.5047632,39.7478361 74.5054518,39.7381967 74.5040746,39.7292459" id="Fill-26" fill="#FFFFFF" sketch:type="MSShapeGroup"></path>
                <path d="M74.2479167,39.2638033 C74.3209079,38.7460328 74.3966535,38.2151803 74.4696447,37.7077377 C74.3257281,38.2544262 74.2100439,38.7350164 74.1962719,38.9236721 C74.1962719,38.9236721 74.2196842,39.0689508 74.2479167,39.2638033" id="Fill-27" fill="#FFFFFF" sketch:type="MSShapeGroup"></path>
                <path d="M74.6321535,37.3979016 C74.6445482,37.2794754 74.6452368,37.1644918 74.646614,37.0488197 C74.6342193,37.0949508 74.621136,37.1417705 74.6094298,37.1892787 C74.5488333,37.6361311 74.4875482,38.0836721 74.4434781,38.5504918 C74.4985658,38.2062295 74.5515877,37.8895082 74.6321535,37.3979016" id="Fill-28" fill="#FFFFFF" sketch:type="MSShapeGroup"></path>
                <path d="M77.4133947,23.5365246 L77.4140833,23.5365246 C77.4140833,23.5351475 77.4147719,23.533082 77.4147719,23.5317049 C77.4140833,23.533082 77.4140833,23.534459 77.4133947,23.5365246" id="Fill-29" fill="#FFFFFF" sketch:type="MSShapeGroup"></path>
                <path d="M74.7946623,36.7286557 C74.853193,36.4656393 74.9117237,36.2129508 74.9619912,35.9843607 C74.960614,35.9609508 74.9592368,35.937541 74.9585482,35.9134426 C74.8979518,36.1379016 74.8208289,36.4167541 74.738886,36.7141967 C74.732,36.7672131 74.7264912,36.8133443 74.7209825,36.847082 C74.7278684,36.8023279 74.7588553,36.7651475 74.7946623,36.7286557" id="Fill-30" fill="#FFFFFF" sketch:type="MSShapeGroup"></path>
                <path d="M76.7365044,32.3138361 C76.7358158,32.3145246 76.7358158,32.3159016 76.7358158,32.3172787 C76.7344386,32.3200328 76.7344386,32.3234754 76.7344386,32.3276066 C76.7344386,32.3227869 76.7365044,32.3172787 76.7365044,32.3138361" id="Fill-31" fill="#FFFFFF" sketch:type="MSShapeGroup"></path>
                <path d="M74.1535789,40.851541 C74.1983377,40.8150492 74.2341447,40.7668525 74.2499825,40.7076393 C74.3064474,40.4941967 74.3250395,40.4267213 74.3277939,40.4136393 C74.3298596,40.4081311 74.3298596,40.4067541 74.3319254,40.3991803 C74.3567149,40.3020984 74.3443202,40.0714426 74.3181535,39.8208197 C74.2795921,40.0576721 74.2527368,40.221541 74.2527368,40.221541 C74.2527368,40.221541 74.2121096,40.4845574 74.1535789,40.851541" id="Fill-32" fill="#FFFFFF" sketch:type="MSShapeGroup"></path>
                <path d="M74.3277939,40.4136393 C74.2954298,40.5458361 74.3353684,40.3902295 74.3277939,40.4136393" id="Fill-33" fill="#FFFFFF" sketch:type="MSShapeGroup"></path>
                <path d="M74.5901491,38.1545902 C74.5570965,38.3583934 74.5157807,38.6131475 74.4730877,38.8734098 C74.4627588,39.1612131 74.4675789,39.4448852 74.5026974,39.7168525 C74.4627588,39.2107869 74.5653596,38.6730492 74.5901491,38.1545902" id="Fill-34" fill="#FFFFFF" sketch:type="MSShapeGroup"></path>
                <path d="M75.2684167,33.2330164 C75.2773684,32.9879016 75.2911404,32.7420984 75.2925175,32.4770164 C75.274614,32.6567213 75.2291667,33.1221639 75.1823421,33.6020656 C75.2105746,33.4781311 75.2415614,33.3541967 75.2684167,33.2330164" id="Fill-35" fill="#FFFFFF" sketch:type="MSShapeGroup"></path>
                <path d="M74.532307,39.481377 C74.5281754,39.2321311 74.5295526,38.9794426 74.5502105,38.7301967 L74.6672719,37.8619672 C74.6748465,37.7600656 74.6817325,37.6650492 74.6913728,37.5500656 C74.6762237,37.6443934 74.6672719,37.6898361 74.6535,37.7786557 C74.5894605,38.4306885 74.4703333,39.0978689 74.5040746,39.7292459 C74.5054518,39.7381967 74.5047632,39.7478361 74.5061404,39.7554098 C74.5102719,39.7140984 74.5192237,39.6108197 74.532307,39.481377" id="Fill-36" fill="#FFFFFF" sketch:type="MSShapeGroup"></path>
                <path d="M75.1162368,36.9090492 L74.9681886,38.024459 C75.0866272,37.6733115 75.2105746,37.2904918 75.3393421,36.8608525 C75.3524254,36.5888852 75.3717061,36.3127869 75.3999386,36.0318689 C75.3111096,36.3238033 75.1968026,36.6171148 75.1162368,36.9090492" id="Fill-37" fill="#FFFFFF" sketch:type="MSShapeGroup"></path>
                <path d="M74.5026974,39.7829508 C74.5026974,39.7829508 74.5054518,39.7774426 74.5040746,39.7767541 C74.5040746,39.7712459 74.5054518,39.7636721 74.5040746,39.7574754 C74.5054518,39.7664262 74.5040746,39.775377 74.5026974,39.7829508" id="Fill-38" fill="#FFFFFF" sketch:type="MSShapeGroup"></path>
                <path d="M77.7404781,25.5353115 L77.7590702,25.4444262 C77.7604474,25.4361639 77.9835526,24.1155738 78.0076535,24.1114426 C78.0117851,24.1107541 77.9945702,24.1272787 77.9739123,24.1451803 L77.7976316,25.0671148 C77.7824825,25.2123934 77.7625132,25.3721311 77.7404781,25.5353115" id="Fill-39" fill="#FFFFFF" sketch:type="MSShapeGroup"></path>
                <path d="M74.5026974,39.7168525 C74.5040746,39.7299344 74.5026974,39.7443934 74.5040746,39.7574754 C74.503386,39.7485246 74.5047632,39.7388852 74.5040746,39.7292459 C74.503386,39.7251148 74.503386,39.7209836 74.5026974,39.7168525" id="Fill-40" fill="#FFFFFF" sketch:type="MSShapeGroup"></path>
                <g id="Group-44">
                    <mask id="mask-2" sketch:name="Clip 42" fill="white">
                        <use xlink:href="#path-1"></use>
                    </mask>
                    <g id="Clip-42"></g>
                    <path d="M75.0487544,35.5712459 C75.0267193,35.659377 74.9957325,35.7771148 74.9585482,35.9134426 C74.9592368,35.937541 74.960614,35.9609508 74.9619912,35.9843607 C74.9950439,35.8377049 75.0246535,35.6993115 75.0487544,35.5712459" id="Fill-41" fill="#FFFFFF" sketch:type="MSShapeGroup" mask="url(#mask-2)"></path>
                    <path d="M65.5068728,26.3243607 L62.8950263,33.5731475 L62.8495789,33.5731475 L59.9333728,26.3243607 L57.0577939,26.3243607 L61.5219649,36.861541 L61.0213553,38.1029508 C60.5868509,39.1908197 60.2377325,39.6500656 58.9528114,39.6500656 C58.4948947,39.6500656 58.0376667,39.5392131 57.6245088,39.3863607 L57.298114,41.7383607 C57.9509035,41.9118689 58.6264167,42 59.3005526,42 C61.6094167,42 62.5238728,40.977541 63.2861491,39.0173115 L68.2288947,26.3243607 L65.5068728,26.3243607 L65.5068728,26.3243607 Z M52.9220833,23.2962295 L50.3074825,23.2962295 L50.3074825,26.3243607 L48.1514868,26.3243607 L48.1514868,28.545541 L50.3074825,28.545541 L50.3074825,33.334918 C50.3074825,35.7943279 50.9616491,37.0350492 53.726364,37.0350492 C54.3357719,37.0350492 55.2502281,36.9489836 55.7942193,36.6873443 L55.7942193,34.4881967 C55.4685132,34.7284918 54.8363816,34.8145574 54.3791535,34.8145574 C53.2250658,34.8145574 52.9220833,34.1618361 52.9220833,33.1166557 L52.9220833,28.545541 L55.7942193,28.545541 L55.7942193,26.3243607 L52.9220833,26.3243607 L52.9220833,23.2962295 L52.9220833,23.2962295 Z M43.7547982,36.7740984 L46.3666447,36.7740984 L46.3666447,26.3236721 L43.7547982,26.3236721 L43.7547982,36.7740984 Z M45.0369649,21.4014098 C44.081193,21.4014098 43.3836447,22.1422623 43.3836447,22.9698689 C43.3836447,23.7974754 44.081193,24.5376393 45.0369649,24.5376393 C45.9961798,24.5376393 46.7364211,23.8628852 46.7364211,22.9698689 C46.7364211,22.0761639 45.9961798,21.4014098 45.0369649,21.4014098 L45.0369649,21.4014098 Z M38.3747939,28.4133443 C39.0723421,28.4133443 39.7478553,28.826459 40.3572632,29.4578361 L42.1641404,27.6511475 C41.1622325,26.5412459 39.7024079,26.0627213 38.3747939,26.0627213 C35.2175789,26.0627213 32.691807,28.2632459 32.691807,31.5481967 C32.691807,34.8365902 35.2175789,37.0350492 38.3747939,37.0350492 C39.2899386,37.0350492 41.0747807,36.6432787 42.1414167,35.5767541 L40.4006447,33.7060328 C39.9213816,34.3353443 39.1804518,34.6830492 38.3747939,34.6830492 C36.4584298,34.6830492 35.3043421,33.181377 35.3043421,31.5481967 C35.3043421,29.917082 36.4584298,28.4133443 38.3747939,28.4133443 L38.3747939,28.4133443 Z" id="Fill-43" fill="#EC2224" sketch:type="MSShapeGroup" mask="url(#mask-2)"></path>
                </g>
                <path d="M90.5642105,20.6474754 L90.5559474,20.6481639 C90.5538816,20.6805246 90.5490614,20.7142623 90.5469956,20.746623 C90.5518158,20.7149508 90.5593904,20.6798361 90.5642105,20.6474754" id="Fill-45" fill="#FFFFFF" sketch:type="MSShapeGroup"></path>
                <path d="M94.0188991,3.402 C94.0739868,3.4047541 94.1097939,3.42954098 94.1290746,3.45914754 C94.1800307,3.25465574 94.2523333,3.07081967 94.3397851,2.9035082 C94.3452939,2.8642623 94.3494254,2.83740984 94.3494254,2.83740984 C94.3521798,2.80367213 94.3418509,2.77062295 94.3191272,2.74652459 C94.2957149,2.72242623 94.2633509,2.71003279 94.2302982,2.71278689 C94.2302982,2.71278689 94.1559298,2.71485246 94.0664123,2.71760656 L93.9562368,3.41508197 C93.9768947,3.40957377 93.9954868,3.40062295 94.0188991,3.402" id="Fill-46" fill="#FFFFFF" sketch:type="MSShapeGroup"></path>
                <path d="M92.5453026,7.2295082 L91.7134781,11.9913443 C91.7024605,12.0546885 91.7671886,12.1139016 91.8580833,12.1214754 C91.9489781,12.1297377 92.0322982,12.0842951 92.0433158,12.0195738 L92.8751404,7.2577377 C92.8868465,7.19370492 92.8221184,7.13518033 92.7312237,7.12760656 C92.6403289,7.11934426 92.5570088,7.16478689 92.5453026,7.2295082" id="Fill-47" fill="#FFFFFF" sketch:type="MSShapeGroup"></path>
                <path d="M92.5749123,8.68091803 C92.5749123,8.68091803 92.544614,8.88265574 92.4929693,9.21865574 C92.5170702,9.0382623 92.5397939,8.87163934 92.5618289,8.70157377 C92.3917456,9.51954098 92.1844781,10.5337377 92.11975,10.9613115 C92.1782807,10.7705902 92.5074298,10.2294098 92.6361974,9.32606557 C92.6547895,9.0355082 92.8007719,7.80098361 92.8083465,7.51868852 C92.8021491,7.56068852 92.705057,8.0137377 92.5859298,8.58521311 L92.5749123,8.68091803" id="Fill-48" fill="#FFFFFF" sketch:type="MSShapeGroup"></path>
                <path d="M92.2065132,7.96485246 C92.2450746,7.82714754 92.2795044,7.6915082 92.3201316,7.55242623 C92.2884561,7.64331148 92.2574693,7.73488525 92.2264825,7.82783607 C92.2195965,7.87327869 92.2133991,7.91872131 92.2065132,7.96485246" id="Fill-49" fill="#FFFFFF" sketch:type="MSShapeGroup"></path>
                <path d="M91.063443,18.0021639 C91.0737719,17.9532787 91.0813465,17.9078361 91.092364,17.8596393 C91.0916754,17.8341639 91.0889211,17.809377 91.0868553,17.7845902 L91.063443,18.0021639" id="Fill-50" fill="#FFFFFF" sketch:type="MSShapeGroup"></path>
                <path d="M92.6162281,8.3187541 C92.6162281,8.31118033 92.6155395,8.30429508 92.6155395,8.29603279 C92.5983246,8.43029508 92.5790439,8.568 92.5618289,8.70157377 C92.5700921,8.66163934 92.5776667,8.62377049 92.5859298,8.58521311 L92.6162281,8.3187541" id="Fill-51" fill="#FFFFFF" sketch:type="MSShapeGroup"></path>
                <path d="M90.5421754,17.0843607 C90.5972632,16.7676393 90.6509737,16.464 90.7225877,16.0495082 C90.710193,16.042623 90.7026184,16.0343607 90.6936667,16.0254098 C90.6413333,16.3717377 90.5910658,16.7249508 90.5421754,17.0843607" id="Fill-52" fill="#FFFFFF" sketch:type="MSShapeGroup"></path>
                <path d="M90.9587763,18.5102951 L91.0730833,17.4713115 L91.0827237,17.3769836 C91.0861667,17.3060656 91.0896096,17.2365246 91.0909868,17.1676721 C90.8458465,18.3333443 90.6289386,19.5382623 90.5559474,20.6481639 L90.5642105,20.6474754 C90.6661228,19.9713443 90.8052193,19.2518361 90.9587763,18.5102951" id="Fill-53" fill="#FFFFFF" sketch:type="MSShapeGroup"></path>
                <path d="M91.455943,18.4855082 L91.2059825,20.5806885 C91.2052939,20.5896393 91.2032281,20.6123607 91.2018509,20.6399016 L91.3189123,20.6385246 L91.4635175,18.4882623 C91.4607632,18.4875738 91.459386,18.4861967 91.455943,18.4855082" id="Fill-54" fill="#FFFFFF" sketch:type="MSShapeGroup"></path>
                <path d="M91.252807,18.2273115 C91.2183772,18.3078689 91.1832588,18.3870492 91.1481404,18.4607213 C91.1385,18.5323279 91.1219737,18.6362951 91.1040702,18.7650492 C91.027636,19.4191475 90.974614,20.0553443 90.8740789,20.6440328 L91.0152412,20.6419672 L91.1632895,19.2532131 L91.252807,18.2273115" id="Fill-55" fill="#FFFFFF" sketch:type="MSShapeGroup"></path>
                <path d="M92.048136,9.16288525 C92.1362763,8.71396721 92.2251053,8.26367213 92.316,7.81544262 C92.3173772,7.80167213 92.3187544,7.78790164 92.3215088,7.77413115 C92.2292368,8.22718033 92.1383421,8.67127869 92.0639737,9.0327541 L92.048136,9.16288525" id="Fill-56" fill="#FFFFFF" sketch:type="MSShapeGroup"></path>
                <path d="M91.8153904,11.0845574 L91.6611447,12.375541 C91.7499737,11.8901311 91.8401798,11.4047213 91.9317632,10.9206885 C92.0109518,10.2390492 92.0942719,9.54777049 92.1831009,8.84409836 C92.1121754,9.18078689 92.0364298,9.51265574 91.96275,9.84590164 C91.9117939,10.2679672 91.8622149,10.6852131 91.8153904,11.0845574" id="Fill-57" fill="#FFFFFF" sketch:type="MSShapeGroup"></path>
                <path d="M93.2008465,4.58695082 C93.3840132,3.88465574 93.5775088,3.15068852 93.6883728,2.72655738 L93.3902105,2.72586885 C93.3709298,2.86632787 93.3482061,3.03570492 93.3199737,3.2395082 C93.2731491,3.81098361 93.2125526,4.45131148 93.2008465,4.58695082" id="Fill-58" fill="#FFFFFF" sketch:type="MSShapeGroup"></path>
                <path d="M93.3785044,2.72586885 L93.3599123,2.72586885 C93.3557807,2.78714754 93.3509605,2.8504918 93.3461404,2.91865574 C93.3571579,2.85255738 93.368864,2.78714754 93.3785044,2.72586885" id="Fill-59" fill="#FFFFFF" sketch:type="MSShapeGroup"></path>
                <path d="M93.1980921,4.61380328 C93.1980921,4.61380328 93.1987807,4.60347541 93.2008465,4.58695082 C93.1547105,4.75839344 93.1120175,4.92501639 93.0693246,5.0875082 C92.9598377,5.8882623 92.8682544,6.55888525 92.8682544,6.55888525 L92.7532588,7.55380328 C92.7539474,7.56344262 92.7553246,7.57308197 92.7553246,7.58272131 C92.7580789,7.57101639 92.7587675,7.56068852 92.7615219,7.54967213 L93.1209693,6.19534426 C93.1016886,6.55888525 92.8840921,8.28570492 92.8537939,8.6575082 C92.8992412,8.50740984 92.9550175,8.3242623 93.015614,8.12665574 L93.8708509,2.72311475 C93.8102544,2.72518033 93.7634298,2.72655738 93.7579211,2.72655738 L93.6938816,2.72655738 C93.5389474,3.35862295 93.2345877,4.60140984 93.2263246,4.60072131 C93.2125526,4.59934426 93.2008465,4.60554098 93.1980921,4.61380328" id="Fill-60" fill="#FFFFFF" sketch:type="MSShapeGroup"></path>
                <path d="M91.1295482,16.0798033 C91.1694868,15.582 91.2307719,15.0690492 91.3037632,14.5485246 C91.2610702,14.713082 91.2183772,14.8769508 91.1722412,15.0401311 L91.0510482,15.9689508 C91.0462281,16.0068197 91.0131754,16.0364262 90.9684167,16.057082 L90.7776754,17.2730164 C90.6509737,18.256918 90.5194518,19.2745574 90.2722456,19.8928525 L90.228864,19.9899344 C90.3886184,19.5905902 90.4375088,18.9860656 90.4870877,18.3429836 C90.4767588,18.394623 90.4671184,18.4318033 90.4622982,18.4318033 C90.4622982,18.4311148 90.4822675,18.2817049 90.5056798,18.1130164 C90.5270263,17.8382951 90.5511272,17.5608197 90.585557,17.290918 L90.7308509,16.3758689 C90.742557,16.2760328 90.7549518,16.1803279 90.7687237,16.0722295 L90.7673465,16.0722295 C90.7542632,16.1486557 90.7453114,16.197541 90.7315395,16.2780984 C90.6337588,16.9941639 90.4987939,17.7136721 90.4622982,18.4276721 C90.4815789,17.8444918 90.5986404,17.2564918 90.6626798,16.672623 C90.5311579,17.4293115 90.2853289,18.844918 90.2853289,18.844918 C90.2853289,18.844918 90.1241974,19.7999016 89.9706404,20.6550492 L90.3507456,20.6502295 C90.4450833,19.3027869 90.7659693,17.7928525 91.0586228,16.420623 C91.0586228,16.420623 91.0889211,16.2794754 91.1295482,16.0798033" id="Fill-61" fill="#FFFFFF" sketch:type="MSShapeGroup"></path>
                <path d="M93.3185965,2.72586885 L93.1836316,2.72586885 C93.1347412,3.30285246 93.0720789,3.9004918 93.0018421,4.50432787 C93.0624386,4.29501639 93.2283904,3.32281967 93.3185965,2.72586885" id="Fill-62" fill="#FFFFFF" sketch:type="MSShapeGroup"></path>
                <path d="M90.8609956,12.9387541 C91.1329912,11.0804262 91.1536491,10.9668197 91.4690263,9.80459016 L92.397943,2.72586885 L30.6019167,2.6907541 C30.5282368,2.6907541 30.4573114,2.72036066 30.4049781,2.77268852 C30.3519561,2.82501639 30.3237237,2.89593443 30.3237237,2.96960656 L30.3478246,21.2699016 C30.3478246,21.4530492 30.3739912,21.5762951 30.4641974,21.7002295 C30.5440746,21.8103934 30.7905921,21.8434426 31.0240263,21.8420656 L84.3399868,20.7259672 L89.8583991,20.6564262 L90.2116491,17.9863279 L90.8609956,12.9387541" id="Fill-63" fill="#FFFFFF" sketch:type="MSShapeGroup"></path>
                <path d="M92.8035263,5.01177049 C92.8730746,4.76665574 92.9288509,4.58144262 92.9577719,4.50088525 C93.0314518,3.89842623 93.0982456,3.30147541 93.1547105,2.72586885 L93.0865395,2.72586885 C92.9949561,3.46878689 92.8875351,4.33839344 92.8035263,5.01177049" id="Fill-64" fill="#FFFFFF" sketch:type="MSShapeGroup"></path>
                <path d="M90.2371272,18.8421639 C90.2371272,18.8421639 90.428557,17.7432787 90.4946623,17.3583934 C90.54975,16.8922623 90.6096579,16.4426557 90.6730088,16.000623 C90.6647456,15.9861639 90.6619912,15.9696393 90.664057,15.9538033 L91.4235789,10.1605574 C91.1949649,11.0163934 91.1515833,11.2897377 90.9091974,12.9408197 L90.2591623,17.9883934 L89.9066009,20.6557377 L89.9307018,20.6557377 L90.2371272,18.8421639" id="Fill-65" fill="#FFFFFF" sketch:type="MSShapeGroup"></path>
                <path d="M92.7319123,4.80659016 C92.8317588,4.11393443 92.9378026,3.42059016 93.0445351,2.72586885 L92.9983991,2.72586885 C92.8985526,3.37652459 92.8104123,4.07606557 92.7319123,4.80659016" id="Fill-66" fill="#FFFFFF" sketch:type="MSShapeGroup"></path>
                <path d="M92.4158465,6.41911475 C92.479886,6.07347541 92.5453026,5.74229508 92.6162281,5.44829508 C92.7146974,4.5022623 92.8255614,3.56793443 92.9619035,2.72586885 L92.787,2.72586885 L92.1954956,7.24259016 C92.2581579,7.0057377 92.3345921,6.72 92.4158465,6.41911475" id="Fill-67" fill="#FFFFFF" sketch:type="MSShapeGroup"></path>
                <path d="M91.7527281,20.6330164 C91.8932018,20.6309508 92.0102632,20.5242295 92.0267895,20.3837705 C92.0267895,20.3837705 92.4358158,16.3600328 92.5769781,15.3534098 C92.6313772,14.9685246 92.9040614,13.0454754 93.21875,10.8180984 L91.6150088,20.6343934 L91.7527281,20.6330164" id="Fill-68" fill="#FFFFFF" sketch:type="MSShapeGroup"></path>
                <path d="M91.2700219,18.2431475 L91.2782851,18.1694754 C91.2782851,18.1708525 91.2769079,18.1722295 91.2769079,18.1742951 C91.2748421,18.1970164 91.2727763,18.2197377 91.2700219,18.2431475" id="Fill-69" fill="#FFFFFF" sketch:type="MSShapeGroup"></path>
                <path d="M92.348364,8.21891803 C92.3573158,8.12872131 92.3697105,7.99927869 92.3834825,7.85606557 C92.3497412,8.022 92.3166886,8.18931148 92.283636,8.3552459 C92.2003158,9.00314754 92.1225044,9.64209836 92.0460702,10.2741639 L92.201693,9.39078689 C92.2505833,8.99970492 92.2994737,8.60862295 92.348364,8.21891803" id="Fill-70" fill="#FFFFFF" sketch:type="MSShapeGroup"></path>
                <path d="M91.5709386,18.4462623 C91.5688728,18.4490164 91.566807,18.4517705 91.563364,18.4552131 C91.5564781,18.5550492 91.5489035,18.6500656 91.5420175,18.7354426 C91.5509693,18.649377 91.5606096,18.549541 91.5709386,18.4462623" id="Fill-71" fill="#FFFFFF" sketch:type="MSShapeGroup"></path>
                <path d="M91.6039912,12.4423279 L91.7665,11.0824918 C91.7947325,10.8401311 91.8243421,10.5908852 91.8546404,10.3388852 C91.8346711,10.4249508 91.8167675,10.5137705 91.7974868,10.5998361 C91.7589254,10.7678361 91.7251842,10.9317049 91.6893772,11.0962623 L91.3602281,13.6107541 C91.4256447,13.3711475 91.4876184,13.1294754 91.5571667,12.8919344 L91.6039912,12.4423279" id="Fill-72" fill="#FFFFFF" sketch:type="MSShapeGroup"></path>
                <path d="M92.1507368,8.05367213 C92.1142412,8.16314754 92.0791228,8.27881967 92.0440044,8.3944918 L91.9827193,8.8592459 C92.0226579,8.67265574 92.0667281,8.48193443 92.1176842,8.28501639 C92.1287018,8.20790164 92.1397193,8.13078689 92.1507368,8.05367213" id="Fill-73" fill="#FFFFFF" sketch:type="MSShapeGroup"></path>
                <path d="M92.0384956,8.86957377 C92.0102632,8.98042623 91.9834079,9.08921311 91.9668816,9.18836066 C91.9668816,9.18836066 91.8794298,9.68891803 91.8684123,9.75088525 C91.88425,9.67377049 91.9400263,9.40455738 92.0199035,9.01691803 C92.0261009,8.96734426 92.0316096,8.91845902 92.0384956,8.86957377" id="Fill-74" fill="#FFFFFF" sketch:type="MSShapeGroup"></path>
                <path d="M91.9400263,9.64278689 C91.916614,9.75363934 91.9028421,9.82111475 91.9028421,9.82111475 C91.8642807,9.99737705 91.8264079,10.1715738 91.7885351,10.346459 L91.7658114,10.5206557 C91.8222763,10.2645246 91.8746096,10.0021967 91.9276316,9.7412459 C91.9317632,9.70819672 91.9352061,9.67583607 91.9400263,9.64278689" id="Fill-75" fill="#FFFFFF" sketch:type="MSShapeGroup"></path>
                <path d="M92.7635877,9.72127869 L92.8131667,9.40386885 C92.8035263,9.43760656 92.7918202,9.47547541 92.7821798,9.50645902 C92.7752939,9.5787541 92.7697851,9.65036066 92.7635877,9.72127869" id="Fill-76" fill="#FFFFFF" sketch:type="MSShapeGroup"></path>
                <path d="M92.5370395,11.1527213 L92.740864,9.86862295 C92.4791974,10.8539016 92.515693,10.9723279 92.5370395,11.1527213" id="Fill-77" fill="#FFFFFF" sketch:type="MSShapeGroup"></path>
                <path d="M92.1507368,11.8171475 C92.1018465,12.1868852 92.0309211,12.726 91.9613728,13.2527213 C91.9207456,13.6527541 91.8718553,14.1388525 91.8718553,14.1388525 C91.8718553,14.1388525 91.8615263,14.2400656 91.8456886,14.3984262 C91.9916711,13.7147213 92.1300789,13.034459 92.2464518,12.3679672 C92.3435439,11.6952787 92.4447675,11.0163934 92.5184474,10.3678033 C92.4206667,10.6762623 92.2595351,10.9509836 92.1631316,11.2621967 C92.1376535,11.4322623 92.1762149,11.6450164 92.1507368,11.8171475" id="Fill-78" fill="#FFFFFF" sketch:type="MSShapeGroup"></path>
                <path d="M92.3249518,6.93481967 L92.1472939,7.60681967 L92.0777456,8.13491803 C92.1142412,8.01855738 92.152114,7.90357377 92.1899868,7.79203279 C92.2333684,7.49872131 92.2781272,7.21229508 92.3249518,6.93481967" id="Fill-79" fill="#FFFFFF" sketch:type="MSShapeGroup"></path>
                <path d="M91.6225833,18.1605246 C91.5681842,18.6734754 91.5096535,19.1960656 91.495193,19.195377 C91.495193,19.195377 91.5158509,18.8793443 91.5433947,18.4717377 C91.5392632,18.4738033 91.5351316,18.4744918 91.5303114,18.4758689 C91.5117193,18.730623 91.4945044,18.9805574 91.4752237,19.2380656 C91.4896842,19.0094754 91.5096535,18.7072131 91.5234254,18.4779344 C91.5172281,18.48 91.5117193,18.4834426 91.5041447,18.4848197 L91.3939693,20.1958033 L92.1796579,15.385082 C92.0928947,15.7320984 91.9992456,16.0749836 91.9000877,16.407541 L91.6225833,18.1605246" id="Fill-80" fill="#FFFFFF" sketch:type="MSShapeGroup"></path>
                <path d="M91.4889956,15.5145246 C91.5158509,15.2577049 91.5406404,15.0284262 91.5495921,14.9430492 C91.5337544,15.0242951 91.5172281,15.1041639 91.5007018,15.1854098 C91.4511228,15.6783934 91.4036096,16.1624262 91.3595395,16.6326885 C91.3691798,16.5893115 91.3781316,16.5473115 91.3877719,16.5025574 C91.3898377,16.4743279 91.4435482,15.9558689 91.4889956,15.5179672 L91.4889956,15.5145246" id="Fill-81" fill="#FFFFFF" sketch:type="MSShapeGroup"></path>
                <path d="M91.4029211,15.6653115 C91.3981009,15.7086885 91.3932807,15.7534426 91.3891491,15.7968197 C91.3925921,15.7568852 91.3967237,15.7148852 91.4008553,15.6742623 C91.3733114,15.8071475 91.3457675,15.9420984 91.3209781,16.0619016 C91.2961886,16.3689836 91.2982544,16.6588525 91.2899912,16.9542295 C91.3085833,16.8688525 91.3264868,16.785541 91.3437018,16.702918 C91.380886,16.268459 91.4208246,15.8243607 91.4628289,15.370623 C91.4421711,15.4718361 91.4228904,15.567541 91.4029211,15.6653115" id="Fill-82" fill="#FFFFFF" sketch:type="MSShapeGroup"></path>
                <path d="M92.6100307,6.18363934 C92.6355088,5.97914754 92.662364,5.76363934 92.6843991,5.59288525 C92.6843991,5.58462295 92.6850877,5.57704918 92.6857763,5.56878689 L92.6313772,5.77190164 C92.6127851,5.96262295 92.5948816,6.15265574 92.5756009,6.34131148 C92.587307,6.28760656 92.5990132,6.23596721 92.6100307,6.18363934" id="Fill-83" fill="#FFFFFF" sketch:type="MSShapeGroup"></path>
                <path d="M92.7236491,5.65072131 C92.8145439,5.23347541 92.8889123,4.9057377 92.9267851,4.75495082 C92.9350482,4.69229508 92.9419342,4.63101639 92.9495088,4.56836066 L92.7773596,5.21970492 C92.7573904,5.38357377 92.7401754,5.52403279 92.7236491,5.65072131" id="Fill-84" fill="#FFFFFF" sketch:type="MSShapeGroup"></path>
                <path d="M92.6272456,7.02432787 C92.6534123,6.83636066 92.6788904,6.64563934 92.7043684,6.45560656 C92.6857763,6.5182623 92.6664956,6.58160656 92.6472149,6.64563934 C92.6417061,6.7702623 92.636886,6.8935082 92.6272456,7.02432787" id="Fill-85" fill="#FFFFFF" sketch:type="MSShapeGroup"></path>
                <path d="M92.3848596,8.35386885 L92.5163816,7.60337705 L92.5260219,7.602 C92.5301535,7.57927869 92.5528772,7.42436066 92.5528772,7.42436066 L92.5576974,7.42436066 C92.5756009,7.20540984 92.5914386,6.99127869 92.6065877,6.77852459 C92.5990132,6.804 92.5914386,6.82878689 92.583864,6.85357377 C92.5735351,6.90659016 92.5618289,6.95960656 92.5521886,7.01262295 C92.5012325,7.40852459 92.4502763,7.80718033 92.3993202,8.20652459 C92.3938114,8.25540984 92.3889912,8.30429508 92.3848596,8.35386885" id="Fill-86" fill="#FFFFFF" sketch:type="MSShapeGroup"></path>
                <path d="M92.872386,5.18321311 C92.8179868,5.50681967 92.7587675,5.82836066 92.7036798,6.15127869 C92.7463728,5.97501639 92.7856228,5.78085246 92.8214298,5.57911475 C92.8386447,5.44760656 92.8558596,5.31540984 92.872386,5.18321311" id="Fill-87" fill="#FFFFFF" sketch:type="MSShapeGroup"></path>
                <path d="M92.9102588,4.88783607 C92.862057,5.1212459 92.7759825,5.54193443 92.6775132,6.02734426 C92.6740702,6.0535082 92.6706272,6.08380328 92.6685614,6.09688525 L92.6685614,6.11340984 C92.754636,5.71957377 92.8352018,5.32367213 92.9061272,4.92432787 C92.9068158,4.91193443 92.9095702,4.89954098 92.9102588,4.88783607" id="Fill-88" fill="#FFFFFF" sketch:type="MSShapeGroup"></path>
                <path d="M92.5418596,6.69039344 C92.5418596,6.69796721 92.5404825,6.70485246 92.5397939,6.71242623 C92.5418596,6.70140984 92.544614,6.69108197 92.5466798,6.68006557 C92.5473684,6.66904918 92.5501228,6.65734426 92.5508114,6.64495082 C92.5473684,6.66009836 92.544614,6.6752459 92.5418596,6.69039344" id="Fill-89" fill="#FFFFFF" sketch:type="MSShapeGroup"></path>
                <path d="M92.623114,7.41678689 L92.7215833,7.40645902 L92.8200526,6.5575082 L92.9501974,5.53711475 C92.8889123,5.77534426 92.8365789,5.97088525 92.8000833,6.11203279 C92.7415526,6.55406557 92.6816447,6.99059016 92.623114,7.41678689" id="Fill-90" fill="#FFFFFF" sketch:type="MSShapeGroup"></path>
                <path d="M92.6038333,5.55639344 C92.5673377,5.73816393 92.5301535,5.9302623 92.4936579,6.13131148 C92.5218904,6.02940984 92.5487456,5.9275082 92.5762895,5.82698361 C92.5859298,5.73747541 92.5962588,5.64796721 92.6038333,5.55639344" id="Fill-91" fill="#FFFFFF" sketch:type="MSShapeGroup"></path>
                <path d="M92.2760614,7.53659016 C92.3187544,7.41059016 92.3614474,7.28459016 92.4027632,7.15790164 C92.4502763,6.80331148 92.4977895,6.44872131 92.5473684,6.09137705 L92.4151579,6.594 C92.362136,6.90934426 92.3111798,7.23777049 92.2616009,7.57859016 C92.2657325,7.56481967 92.2705526,7.55036066 92.2760614,7.53659016" id="Fill-92" fill="#FFFFFF" sketch:type="MSShapeGroup"></path>
                <path d="M92.7133202,5.08957377 C92.6988596,5.19354098 92.6830219,5.29957377 92.6671842,5.40354098 C92.6630526,5.4517377 92.6589211,5.49855738 92.6541009,5.54606557 C92.6678728,5.49511475 92.6816447,5.44622951 92.6954167,5.39665574 C92.7023026,5.29268852 92.7098772,5.18734426 92.7133202,5.08957377" id="Fill-93" fill="#FFFFFF" sketch:type="MSShapeGroup"></path>
                <path d="M92.7181404,5.31265574 C92.8000833,4.66819672 92.9088816,3.80754098 93.0114825,3.02262295 C92.911636,3.70770492 92.8090351,4.39278689 92.715386,5.07442623 C92.7133202,5.17013115 92.7071228,5.27272131 92.701614,5.37393443 C92.7071228,5.35396721 92.7133202,5.33262295 92.7181404,5.31265574" id="Fill-94" fill="#FFFFFF" sketch:type="MSShapeGroup"></path>
                <path d="M93.9658772,5.63488525 C94.2757456,4.64960656 94.5925,3.58032787 94.6379474,2.69695082 L94.4465175,2.70865574 C94.4038246,2.7664918 94.3742149,2.83740984 94.3397851,2.9035082 C94.2647281,3.43711475 93.693193,7.46842623 93.21875,10.8180984 L94.0519518,5.7202623 C94.0588377,5.68170492 94.0188991,5.65140984 93.9658772,5.63488525" id="Fill-95" fill="#FFFFFF" sketch:type="MSShapeGroup"></path>
                <path d="M92.5749123,8.68091803 L92.5859298,8.58521311 C92.5776667,8.62377049 92.5700921,8.66163934 92.5618289,8.70157377 C92.5397939,8.87163934 92.5170702,9.0382623 92.4929693,9.21865574 C92.544614,8.88265574 92.5749123,8.68091803 92.5749123,8.68091803" id="Fill-96" fill="#FFFFFF" sketch:type="MSShapeGroup"></path>
                <path d="M93.1980921,4.61380328 C93.2008465,4.60554098 93.2125526,4.59934426 93.2263246,4.60072131 C93.2345877,4.60140984 93.5389474,3.35862295 93.6938816,2.72655738 L93.6883728,2.72655738 C93.5775088,3.15068852 93.3840132,3.88465574 93.2008465,4.58695082 C93.1987807,4.60347541 93.1980921,4.61380328 93.1980921,4.61380328" id="Fill-97" fill="#FFFFFF" sketch:type="MSShapeGroup"></path>
                <path id="Fill-98" fill="#DC3D37" sketch:type="MSShapeGroup"></path>
                <path d="M88.6815877,8.85718033 L88.6815877,6.63668852 L85.8066974,6.63668852 L85.8066974,3.60855738 L83.1962281,3.60855738 L83.1962281,6.63668852 L81.0402325,6.63668852 L81.0402325,8.85718033 L83.1962281,8.85718033 L83.1962281,13.6472459 C83.1962281,16.1073443 83.8497061,17.3480656 86.6123553,17.3480656 C87.2217632,17.3480656 88.1382851,17.260623 88.6815877,16.9996721 L88.6815877,14.8012131 C88.355193,15.0401311 87.7251272,15.1268852 87.2672105,15.1268852 C86.1138114,15.1268852 85.8066974,14.4741639 85.8066974,13.4282951 L85.8066974,8.85718033 L88.6815877,8.85718033 L88.6815877,8.85718033 Z M75.3179956,8.28983607 L75.2732368,8.28983607 L75.2732368,6.63668852 L72.6613904,6.63668852 L72.6613904,17.0871148 L75.2732368,17.0871148 L75.2732368,11.4914754 C75.2732368,10.9248197 75.6244211,8.85718033 78.0840877,8.85718033 C78.5,8.85718033 78.9117807,8.94393443 79.3462851,9.05203279 L79.3462851,6.52790164 C79.0405482,6.44114754 78.7368772,6.37504918 78.4084167,6.37504918 C77.0381096,6.37504918 75.8840219,7.09455738 75.3179956,8.28983607 L75.3179956,8.28983607 Z M68.0016579,12.9938361 C68.0016579,14.4528197 67.1526184,15.3892131 65.3684649,15.3892131 C64.5166711,15.3892131 63.538864,14.9747213 63.538864,14.0183607 C63.538864,12.5139344 66.021943,12.4065246 67.4569781,12.4065246 L68.0016579,12.4065246 L68.0016579,12.9938361 L68.0016579,12.9938361 Z M66.0419123,6.37504918 C64.3879035,6.37504918 62.753864,6.87560656 61.5997763,8.05022951 L62.9728377,9.42314754 C63.6696974,8.77042623 64.6702281,8.33527869 65.7582105,8.33527869 C67.1526184,8.33527869 68.1538377,9.00934426 68.1538377,10.2927541 L68.1538377,10.5764262 L67.5010482,10.5764262 C64.8892018,10.5764262 60.9249518,10.8174098 60.9249518,14.2132131 C60.9249518,16.2808525 62.7993114,17.3480656 64.7363333,17.3480656 C66.129364,17.3480656 67.349557,16.8261639 68.0904868,15.6494754 L68.1538377,15.6494754 L68.1538377,17.0871148 L70.5060833,17.0871148 L70.5060833,11.0783607 C70.5060833,9.59665574 70.5060833,6.37504918 66.0419123,6.37504918 L66.0419123,6.37504918 Z M55.4760877,6.37504918 C53.9081535,6.37504918 52.7988246,6.98370492 52.0358596,8.31186885 C51.4918684,7.00711475 50.3818509,6.37504918 48.7705351,6.37504918 C47.0290746,6.37504918 46.0271667,7.28940984 45.5699386,8.2684918 L45.526557,8.2684918 L45.526557,6.63668852 L43.0427895,6.63668852 L43.0427895,17.0871148 L45.6567018,17.0871148 L45.6567018,11.383377 C45.6567018,9.98911475 46.3308377,8.72498361 48.0509518,8.72498361 C49.3152149,8.72498361 49.8371711,9.576 49.8371711,10.8594098 L49.8371711,17.0871148 L52.4517719,17.0871148 L52.4517719,11.4260656 C52.4517719,10.0765574 53.0604912,8.72498361 54.6938421,8.72498361 C56.2390526,8.72498361 56.6294868,9.85760656 56.6294868,11.1651148 L56.6294868,17.0871148 L59.2433991,17.0871148 L59.2433991,10.8594098 C59.2433991,8.35593443 58.2628377,6.37504918 55.4760877,6.37504918 L55.4760877,6.37504918 Z M35.4881974,9.576 C35.4881974,8.79108197 36.3152018,8.46472131 37.0120614,8.46472131 C37.9051711,8.46472131 38.5586491,8.83583607 39.0592588,9.53193443 L40.8007193,7.96416393 C39.9516798,6.81019672 38.4711974,6.37504918 37.0781667,6.37504918 C34.9655526,6.37504918 32.8749737,7.42022951 32.8749737,9.75019672 C32.8749737,13.734 38.5159561,12.0360984 38.5159561,14.1918689 C38.5159561,15.0187869 37.5347061,15.3892131 36.773807,15.3892131 C35.6617237,15.3892131 34.9655526,14.8452787 34.2914167,14.1051148 L32.5485789,15.735541 C33.6145263,16.9349508 35.0096228,17.3480656 36.6209386,17.3480656 C38.7548991,17.3480656 41.1278026,16.4763934 41.1278026,13.9949508 C41.1278026,9.92439344 35.4881974,11.4467213 35.4881974,9.576 L35.4881974,9.576 Z" id="Fill-99" fill="#EC2224" sketch:type="MSShapeGroup"></path>
                <path d="M7.07670614,12.4065246 L6.53202632,12.4065246 C5.09561404,12.4065246 2.61322368,12.5139344 2.61322368,14.0183607 C2.61322368,14.9747213 3.59378509,15.3892131 4.44282456,15.3892131 C6.22697807,15.3892131 7.07670614,14.4528197 7.07670614,12.9938361 L7.07670614,12.4065246 L7.07670614,12.4065246 Z M7.22888596,15.6494754 L7.16415789,15.6494754 C6.42391667,16.8261639 5.20372368,17.3480656 3.81000439,17.3480656 C1.87367105,17.3480656 0,16.2808525 0,14.2132131 C0,10.8174098 3.9635614,10.5764262 6.57678509,10.5764262 L7.22888596,10.5764262 L7.22888596,10.2927541 C7.22888596,9.00934426 6.22697807,8.33527869 4.83394737,8.33527869 C3.74527632,8.33527869 2.74267982,8.77042623 2.04719737,9.42314754 L0.674824561,8.05022951 C1.82891228,6.87560656 3.46226316,6.37504918 5.11764912,6.37504918 C9.58113158,6.37504918 9.58113158,9.59665574 9.58113158,11.0783607 L9.58113158,17.0871148 L7.22888596,17.0871148 L7.22888596,15.6494754 L7.22888596,15.6494754 Z" id="Fill-100" fill="#1A1918" sketch:type="MSShapeGroup"></path>
                <path d="M12.1220526,6.63668852 L14.6058202,6.63668852 L14.6058202,8.2684918 L14.6478246,8.2684918 C15.1064298,7.28940984 16.1083377,6.37504918 17.8484211,6.37504918 C19.461114,6.37504918 20.570443,7.00711475 21.1151228,8.31186885 C21.8773991,6.98370492 22.9874167,6.37504918 24.5553509,6.37504918 C27.3434781,6.37504918 28.3233509,8.35593443 28.3233509,10.8594098 L28.3233509,17.0871148 L25.7094386,17.0871148 L25.7094386,11.1651148 C25.7094386,9.85760656 25.3183158,8.72498361 23.7724167,8.72498361 C22.1383772,8.72498361 21.5303465,10.0765574 21.5303465,11.4260656 L21.5303465,17.0871148 L18.9157456,17.0871148 L18.9157456,10.8594098 C18.9157456,9.576 18.3944781,8.72498361 17.1302149,8.72498361 C15.4107895,8.72498361 14.7345877,9.98911475 14.7345877,11.383377 L14.7345877,17.0871148 L12.1220526,17.0871148 L12.1220526,6.63668852" id="Fill-101" fill="#1A1918" sketch:type="MSShapeGroup"></path>
                <path d="M107.242706,6.63668852 L109.856618,6.63668852 L109.856618,8.28983607 L109.9,8.28983607 C110.465338,7.09455738 111.620114,6.37504918 112.992487,6.37504918 C113.318193,6.37504918 113.623241,6.44114754 113.927601,6.52790164 L113.927601,9.05203279 C113.492408,8.94393443 113.07925,8.85718033 112.664026,8.85718033 C110.205048,8.85718033 109.856618,10.9248197 109.856618,11.4914754 L109.856618,17.0871148 L107.242706,17.0871148 L107.242706,6.63668852" id="Fill-102" fill="#1A1918" sketch:type="MSShapeGroup"></path>
                <path d="M120.481662,14.9960656 C122.399404,14.9960656 123.553491,13.4943934 123.553491,11.8612131 C123.553491,10.2287213 122.399404,8.72498361 120.481662,8.72498361 C118.565298,8.72498361 117.411211,10.2287213 117.411211,11.8612131 C117.411211,13.4943934 118.565298,14.9960656 120.481662,14.9960656 L120.481662,14.9960656 Z M123.594807,15.5200328 L123.553491,15.5200328 C122.789838,16.7827869 121.418842,17.3480656 119.959706,17.3480656 C116.736386,17.3480656 114.798675,14.9526885 114.798675,11.8612131 C114.798675,8.77042623 116.867908,6.37504918 119.850908,6.37504918 C121.809965,6.37504918 122.854566,7.28940984 123.399246,7.96416393 L123.466039,7.96416393 L123.466039,0.626557377 L126.077197,0.626557377 L126.077197,17.0871148 L123.594807,17.0871148 L123.594807,15.5200328 L123.594807,15.5200328 Z" id="Fill-103" fill="#1A1918" sketch:type="MSShapeGroup"></path>
                <path d="M135.261697,12.4065246 L134.717018,12.4065246 C133.279917,12.4065246 130.797526,12.5139344 130.797526,14.0183607 C130.797526,14.9747213 131.776022,15.3892131 132.626439,15.3892131 C134.411281,15.3892131 135.261697,14.4528197 135.261697,12.9938361 L135.261697,12.4065246 L135.261697,12.4065246 Z M135.4125,15.6494754 L135.348461,15.6494754 C134.608219,16.8261639 133.388715,17.3480656 131.995684,17.3480656 C130.056596,17.3480656 128.184991,16.2808525 128.184991,14.2132131 C128.184991,10.8174098 132.147175,10.5764262 134.760399,10.5764262 L135.4125,10.5764262 L135.4125,10.2927541 C135.4125,9.00934426 134.411281,8.33527869 133.01825,8.33527869 C131.930268,8.33527869 130.927671,8.77042623 130.230811,9.42314754 L128.859127,8.05022951 C130.013904,6.87560656 131.647254,6.37504918 133.301952,6.37504918 C137.764746,6.37504918 137.764746,9.59665574 137.764746,11.0783607 L137.764746,17.0871148 L135.4125,17.0871148 L135.4125,15.6494754 L135.4125,15.6494754 Z" id="Fill-104" fill="#1A1918" sketch:type="MSShapeGroup"></path>
                <path d="M140.148667,6.63668852 L142.632434,6.63668852 L142.632434,8.2684918 L142.674439,8.2684918 C143.133044,7.28940984 144.134263,6.37504918 145.876412,6.37504918 C147.487728,6.37504918 148.597746,7.00711475 149.142425,8.31186885 C149.904013,6.98370492 151.014719,6.37504918 152.581965,6.37504918 C155.368715,6.37504918 156.349965,8.35593443 156.349965,10.8594098 L156.349965,17.0871148 L153.735364,17.0871148 L153.735364,11.1651148 C153.735364,9.85760656 153.344241,8.72498361 151.798342,8.72498361 C150.16568,8.72498361 149.556272,10.0765574 149.556272,11.4260656 L149.556272,17.0871148 L146.943737,17.0871148 L146.943737,10.8594098 C146.943737,9.576 146.421092,8.72498361 145.157518,8.72498361 C143.438092,8.72498361 142.76189,9.98911475 142.76189,11.383377 L142.76189,17.0871148 L140.148667,17.0871148 L140.148667,6.63668852" id="Fill-105" fill="#1A1918" sketch:type="MSShapeGroup"></path>
                <path d="M102.349539,10.8174098 C102.328193,9.29163934 101.324908,8.33527869 99.6936228,8.33527869 C98.1470351,8.33527869 97.189886,9.31504918 96.9922588,10.8174098 L102.349539,10.8174098 L102.349539,10.8174098 Z M96.9922588,12.7748852 C97.1657851,14.3213115 98.3432851,15.259082 99.8017325,15.259082 C101.108689,15.259082 101.956351,14.6476721 102.610518,13.8420984 L104.4835,15.259082 C103.263996,16.7607541 101.718096,17.3480656 100.062022,17.3480656 C96.9054956,17.3480656 94.3797237,15.148918 94.3797237,11.8612131 C94.3797237,8.57488525 96.9054956,6.37504918 100.062022,6.37504918 C102.980982,6.37504918 104.962763,8.42203279 104.962763,12.0581311 L104.962763,12.7748852 L96.9922588,12.7748852 L96.9922588,12.7748852 Z" id="Fill-106" fill="#1A1918" sketch:type="MSShapeGroup"></path>
            </g>
        </g>
    </g>
</svg>